<?xml version="1.0" encoding="UTF-8"?>
<svg id="a" data-name="Layer 1" xmlns="http://www.w3.org/2000/svg" viewBox="0 0 316.71 111.16">
  <defs>
    <style>
      .b {
        fill: #f58220;
      }

      .c {
        fill: #67666b;
      }
    </style>
  </defs>
  <polygon class="c" points="89.66 111.03 83.59 101.87 83.59 111.03 80.59 111.03 80.59 96.11 83.26 96.11 89.34 105.25 89.34 96.11 92.34 96.11 92.34 111.03 89.66 111.03"/>
  <polygon class="c" points="102.16 111.03 102.16 96.11 112.27 96.11 112.27 98.71 105.16 98.71 105.16 102.21 111.21 102.21 111.21 104.81 105.16 104.81 105.16 108.43 112.27 108.43 112.27 111.03 102.16 111.03"/>
  <polygon class="c" points="127.31 98.71 127.31 111.03 124.32 111.03 124.32 98.71 120.31 98.71 120.31 96.11 131.32 96.11 131.32 98.71 127.31 98.71"/>
  <polygon class="c" points="153.08 111.03 150.59 111.03 147.76 101.98 144.94 111.03 142.44 111.03 138.34 96.11 141.47 96.11 143.84 105.52 146.64 96.11 148.88 96.11 151.69 105.52 154.08 96.11 157.2 96.11 153.08 111.03"/>
  <path class="c" d="M172.22,99.38c-.43-.48-1.1-.8-1.92-.8s-1.51.31-1.94.8c-.58.63-.73,1.32-.73,4.19s.15,3.56.73,4.19c.43.48,1.12.79,1.94.79s1.49-.31,1.92-.79c.58-.63.75-1.32.75-4.19s-.17-3.56-.75-4.19M174.44,109.52c-1.08,1.05-2.39,1.64-4.14,1.64s-3.08-.59-4.16-1.64c-1.55-1.51-1.51-3.37-1.51-5.95s-.04-4.44,1.51-5.95c1.08-1.05,2.41-1.64,4.16-1.64s3.06.59,4.14,1.64c1.56,1.51,1.53,3.37,1.53,5.95s.02,4.44-1.53,5.95"/>
  <path class="c" d="M191.1,98.71h-2.82v3.94h2.82c1.32,0,2.18-.82,2.18-1.97s-.86-1.97-2.18-1.97M193.43,111.03l-2.99-5.95h-2.16v5.95h-3v-14.92h6.01c3.13,0,4.98,2.08,4.98,4.57,0,2.09-1.31,3.39-2.8,3.92l3.42,6.43h-3.47Z"/>
  <polygon class="c" points="214.54 111.03 210.6 104.24 208.62 106.55 208.62 111.03 205.62 111.03 205.62 96.11 208.62 96.11 208.62 102.6 214.03 96.11 217.67 96.11 212.58 102.04 218.04 111.03 214.54 111.03"/>
  <path class="c" d="M230.43,111.16c-2.33,0-4.1-.48-5.6-1.97l1.94-1.88c.97.94,2.29,1.25,3.71,1.25,1.77,0,2.72-.64,2.72-1.84,0-.52-.15-.96-.48-1.26-.3-.27-.64-.42-1.36-.52l-1.85-.25c-1.32-.19-2.29-.59-2.98-1.24-.73-.71-1.1-1.67-1.1-2.93,0-2.66,2.03-4.53,5.35-4.53,2.11,0,3.64.5,4.96,1.74l-1.9,1.82c-.98-.9-2.14-1.02-3.15-1.02-1.59,0-2.37.86-2.37,1.89,0,.38.13.77.45,1.07.3.27.79.5,1.42.59l1.81.25c1.4.19,2.29.57,2.93,1.16.82.75,1.18,1.84,1.18,3.16,0,2.89-2.48,4.53-5.69,4.53"/>
  <path class="b" d="M310.5,22.02h-1.07v1.73h1.07c.57,0,.95-.4.95-.87s-.37-.87-.95-.87M311.41,27.47l-1.25-2.59h-.73v2.59h-1.54v-6.68h2.8c1.39,0,2.28.99,2.28,2.1,0,.92-.61,1.51-1.26,1.77l1.44,2.81h-1.75ZM310.25,19.27c-2.78,0-4.92,2.08-4.92,4.87s2.14,4.87,4.92,4.87,4.92-2.08,4.92-4.87-2.14-4.87-4.92-4.87M310.25,30.41c-3.56,0-6.45-2.81-6.45-6.28s2.89-6.28,6.45-6.28,6.46,2.81,6.46,6.28-2.89,6.28-6.46,6.28"/>
  <path class="b" d="M173.04,32.18V14.8h-.29c-2.7,1.29-13.2,5.26-13.78,17.65v-.28,14.71c0,8.97-6.82,16.27-15.21,16.27s-15.2-7.3-15.2-16.28v-6.92c-.16-14.87-14.08-18.33-14.08-18.33v25.41h0c.09,16.45,13.18,29.8,29.28,29.8s29.2-13.35,29.28-29.8h0v-14.86Z"/>
  <path class="b" d="M97.72,17.39c-8.26,0-15.76,3.18-21.29,8.34-3.73-2.54-9.5-2.81-9.5-2.81v53.92h14.08v-29.53c0-8.97,7.48-16.25,16.7-16.25,4.2,0,8.02,1.52,10.96,4v-15.69c-3.41-1.27-7.09-1.99-10.96-1.99"/>
  <path class="b" d="M30.57,63.54c-9.35,0-16.94-7.37-16.94-16.47s7.59-16.47,16.94-16.47,16.94,7.38,16.94,16.47-7.59,16.47-16.94,16.47M30.57,17.39C13.69,17.39,0,30.69,0,47.11s13.69,29.72,30.57,29.72c6.98,0,13.4-2.29,18.55-6.13,3.16,5.15,12.03,6.13,12.03,6.13v-29.72c0-16.42-13.69-29.72-30.58-29.72"/>
  <path class="b" d="M274.38,63.54c-9.35,0-16.94-7.37-16.94-16.47s7.59-16.47,16.94-16.47,16.94,7.38,16.94,16.47-7.58,16.47-16.94,16.47M274.38,17.39c-16.88,0-30.58,13.31-30.58,29.72s13.69,29.72,30.58,29.72c6.98,0,13.4-2.29,18.54-6.13,3.17,5.15,12.03,6.13,12.03,6.13v-29.72c0-16.42-13.69-29.72-30.57-29.72"/>
  <path class="b" d="M209.74,63.54c-9.35,0-16.94-7.37-16.94-16.47s7.58-16.47,16.94-16.47,16.94,7.38,16.94,16.47-7.58,16.47-16.94,16.47M209.74,17.39c-6.22,0-11.99,1.82-16.82,4.92v-4.65c-.58-12.39-10.76-16.37-13.45-17.65h-.29v77.01s9.14-.96,12.56-5.94c5.05,3.6,11.26,5.76,18.01,5.76,16.89,0,30.58-13.3,30.58-29.72s-13.69-29.72-30.58-29.72"/>
</svg>