<?xml version="1.0" encoding="UTF-8"?>
<svg id="a" data-name="Layer 1" xmlns="http://www.w3.org/2000/svg" viewBox="0 0 197.31 100">
  <defs>
    <style>
      .b {
        fill: #449eb9;
      }

      .c {
        fill: #002a42;
      }
    </style>
  </defs>
  <g>
    <path class="b" d="M50.77,57.59l-11.49-5.58c-3.71-1.8-6.43-5.12-7.56-8.99l11.53,5.62c3.69,1.8,6.4,5.1,7.52,8.95Z"/>
    <path class="c" d="M41.24,30.65c-2.83,0-5.12,2.29-5.12,5.12s2.29,5.12,5.12,5.12c1.11,0,2.14-.36,2.98-.96l7.21,3.65c3.86,1.95,8.36,1.76,12.03-.5,3.68-2.26,5.88-6.19,5.88-10.51,0-.88-.49-1.68-1.27-2.08l-25.77-13.09c-.66-.34-1.44-.34-2.11,0l-25.77,13.03c-.79.4-1.28,1.21-1.28,2.1s.51,1.69,1.31,2.08l12.09,5.89c.53,6.69,4.61,12.74,10.69,15.7l22.55,10.95c-3.82,4.66-10.06,8.33-18.59,10.94-14.15-4.32-21.6-11.14-23.11-21.25l18.03,9.12c.04,2.8,2.31,5.06,5.12,5.06s5.12-2.29,5.12-5.12-2.29-5.12-5.12-5.12c-1.15,0-2.2.38-3.05,1.02l-21.67-10.96c-.72-.37-1.58-.33-2.27.1-.69.43-1.11,1.18-1.11,1.99.04,14.64,9,24.4,27.39,29.84.22.06.44.1.66.1s.44-.03.66-.1c11.43-3.38,19.08-8.37,23.41-15.26.35-.56.45-1.24.27-1.88-.18-.64-.63-1.17-1.22-1.46l-8.38-4.07c-.53-6.66-4.59-12.7-10.65-15.65l-24.58-11.98,20.53-10.38,23.33,11.85c-.38,2.14-1.64,4.01-3.54,5.18-2.29,1.41-5.09,1.53-7.49.31l-7.17-3.62s0-.02,0-.03c0-2.83-2.29-5.12-5.12-5.12ZM50.77,57.59l-11.49-5.58c-3.71-1.8-6.43-5.12-7.56-8.99l11.53,5.62c3.69,1.8,6.4,5.1,7.52,8.95Z"/>
  </g>
  <g>
    <g>
      <path class="b" d="M87.96,22.82h17.16l4.63,6.98-4.58,4.8-3.49-5.26h-11.1l-1.03,1.14v23.39l1.66,2.52h10.98l4.06-4.06,3.6,5.38-4.92,5.15h-17.16l-5.15-7.66v-26.99l5.32-5.38Z"/>
      <path class="b" d="M118.15,22.82h17.33l3.95,5.95-4.69,4.58-2.75-4.06h-11.15l-1.03,1.09v6.69l1.72,2.52h14.47l4.57,6.92v11.49l-4.69,4.86h-19.96l-3.37-4.8,4.52-4.69,2.23,3.03h13.72l.63-.51v-8.24l-1.14-1.6h-14.47l-5.15-7.66v-10.06l5.26-5.49Z"/>
      <path class="b" d="M142.52,22.82h29.85v6.46h-15.21l3.77,3.37v30.2h-6.92v-28.59l-1.66-4.97h-9.84v-6.46Z"/>
    </g>
    <g>
      <path class="c" d="M89.98,70.24l-.49.98h-2.7v6.38h-1.23v-6.38h-2.7l-.49-.98h7.61Z"/>
      <path class="c" d="M97.29,77.59h-6.98v-7.35h6.86l-.49.98h-5.15v2.21h4.38v.98h-4.38v2.2h5.27l.49.98Z"/>
      <path class="c" d="M104.25,77.59h-4.41c-1.72,0-2.57-.86-2.57-2.57v-2.21c0-1.72.86-2.57,2.57-2.57h4.29l-.49.98h-3.55c-1.06,0-1.59.53-1.59,1.59v2.21c0,1.06.53,1.59,1.59,1.59h3.67l.49.98Z"/>
      <path class="c" d="M112.02,70.24v7.35l-1.22-.49v-2.7h-4.9v2.7l-1.22.49v-7.35l1.22.49v2.7h4.9v-2.7l1.22-.49Z"/>
      <path class="c" d="M120.24,70.24v7.34h-1.22l-4.89-5.82v5.33l-1.22.49v-7.34h1.22l4.89,5.82v-5.33l1.22-.49Z"/>
      <path class="c" d="M128.61,72.81v2.21c0,1.72-.86,2.58-2.58,2.58h-2.45c-1.72,0-2.58-.86-2.58-2.58v-2.21c0-1.72.86-2.58,2.58-2.58h2.45c1.72,0,2.58.86,2.58,2.58ZM127.38,72.81c0-1.06-.53-1.59-1.6-1.59h-1.96c-1.06,0-1.6.53-1.6,1.59v2.21c0,1.06.53,1.6,1.6,1.6h1.96c1.06,0,1.6-.53,1.6-1.6v-2.21Z"/>
      <path class="c" d="M135.97,77.59h-6.61v-7.35l1.22.49v5.88h4.9l.49.98Z"/>
      <path class="c" d="M143.39,72.81v2.21c0,1.72-.86,2.58-2.58,2.58h-2.45c-1.72,0-2.58-.86-2.58-2.58v-2.21c0-1.72.86-2.58,2.58-2.58h2.45c1.72,0,2.58.86,2.58,2.58ZM142.16,72.81c0-1.06-.53-1.59-1.6-1.59h-1.96c-1.06,0-1.6.53-1.6,1.59v2.21c0,1.06.53,1.6,1.6,1.6h1.96c1.06,0,1.6-.53,1.6-1.6v-2.21Z"/>
      <path class="c" d="M151.24,73.92v3.68h-4.66c-1.72,0-2.57-.86-2.57-2.57v-2.2c0-1.72.86-2.58,2.57-2.58h4.53l-.49.98h-3.8c-1.06,0-1.59.53-1.59,1.59v2.21c0,1.06.53,1.59,1.59,1.59h3.19v-2.2l1.23-.49Z"/>
      <path class="c" d="M153.15,70.73v6.86l-1.22-.49v-6.86l1.22.49Z"/>
      <path class="c" d="M161.02,77.59h-6.98v-7.35h6.86l-.49.98h-5.15v2.21h4.38v.98h-4.38v2.2h5.27l.49.98Z"/>
      <path class="c" d="M168.51,75.51c0,1.39-.69,2.08-2.08,2.08h-5.14l.49-.98h4.41c.61,0,1.1-.49,1.1-1.1s-.49-1.1-1.1-1.1h-2.94c-1.39,0-2.08-.69-2.08-2.08s.69-2.08,2.08-2.08h5.02l-.49.98h-4.29c-.61,0-1.1.49-1.1,1.1s.49,1.1,1.1,1.1h2.94c1.39,0,2.08.7,2.08,2.08Z"/>
    </g>
  </g>
</svg>