<svg xmlns="http://www.w3.org/2000/svg" version="1.1" xmlns:xlink="http://www.w3.org/1999/xlink" width="512" height="512" x="0" y="0" viewBox="0 0 100 100" style="enable-background:new 0 0 512 512" xml:space="preserve" class=""><g><path fill="#00326f" d="M73.274 57.998C83.74 64.26 89.26 68.988 96.365 76.53c-.386 2.468-1.209 4.896-2.418 7.195-2.586 4.886-6.927 9.167-12.616 11.862A28.866 28.866 0 0 1 76.03 97.5c-15.32-1.645-32.694-10.277-47.262-24.845C12.693 56.581 3.853 37.097 3.635 20.705c0 0 0-.02.01-.03A30.266 30.266 0 0 1 5.28 16.86c2.913-5.629 7.393-9.85 12.427-12.249A22.938 22.938 0 0 1 24.853 2.5c7.284 7.363 11.813 13.042 17.71 23.715-4.49 6.254-8.662 10.604-13.786 14.717 3.766 6.125 8.473 12.1 14.043 17.67 4.866 4.866 10.04 9.068 15.361 12.566 4.261-4.935 8.721-8.919 15.093-13.17z" opacity="1" data-original="#00326f" class=""></path></g></svg>