<?xml version="1.0" encoding="UTF-8"?>
<svg id="a" data-name="Layer 1" xmlns="http://www.w3.org/2000/svg" xmlns:xlink="http://www.w3.org/1999/xlink" viewBox="0 0 110 33.05">
  <defs>
    <style>
      .ah {
        fill: none;
      }

      .ai {
        fill: url(#k);
      }

      .aj {
        fill: url(#i);
      }

      .ak {
        fill: url(#m);
      }

      .al {
        fill: url(#g);
      }

      .am {
        fill: url(#e);
      }

      .an {
        fill: url(#q);
      }

      .ao {
        fill: url(#o);
      }

      .ap {
        fill: url(#s);
      }

      .aq {
        fill: url(#c);
      }

      .ar {
        fill: url(#u);
      }

      .as {
        fill: url(#w);
      }

      .at {
        fill: url(#y);
      }

      .au {
        fill: url(#aa);
      }

      .av {
        fill: url(#ae);
      }

      .aw {
        fill: url(#ac);
      }

      .ax {
        fill: url(#ag);
      }

      .ay {
        fill: #1b2954;
      }

      .ay, .az {
        fill-rule: evenodd;
      }

      .az {
        fill: #231815;
      }

      .ba {
        clip-path: url(#x);
      }

      .bb {
        clip-path: url(#z);
      }

      .bc {
        clip-path: url(#t);
      }

      .bd {
        clip-path: url(#v);
      }

      .be {
        clip-path: url(#h);
      }

      .bf {
        clip-path: url(#j);
      }

      .bg {
        clip-path: url(#r);
      }

      .bh {
        clip-path: url(#d);
      }

      .bi {
        clip-path: url(#f);
      }

      .bj {
        clip-path: url(#l);
      }

      .bk {
        clip-path: url(#n);
      }

      .bl {
        clip-path: url(#p);
      }

      .bm {
        clip-path: url(#b);
      }

      .bn {
        clip-path: url(#af);
      }

      .bo {
        clip-path: url(#ad);
      }

      .bp {
        clip-path: url(#ab);
      }
    </style>
    <clipPath id="b">
      <path class="ah" d="M32.44,20.96h0c-.26,0-.72.86-2.07,1.61-.56.32-1.32.6-2,.83-5.05,1.72-12.69,1.64-18.6.95-1.18-.14-3.84-.72-4.93-.81-.83-.07-1.55.15-1.77.79-.18.51.08,1.43.34,1.86,1.18,1.95,5.45,2.61,8.28,2.94,5.21.62,10.82.24,14.93-1.42,2.06-.83,3.73-2.56,3.73-2.56.56-.6,1.56-2.17,2.12-4.2h0Z"/>
    </clipPath>
    <radialGradient id="c" cx="-3.28" cy="833.55" fx="-3.28" fy="833.55" r=".99" gradientTransform="translate(60.86 11974.55) scale(14.33 -14.33)" gradientUnits="userSpaceOnUse">
      <stop offset="0" stop-color="#cdde78"/>
      <stop offset="1" stop-color="#81bf41"/>
    </radialGradient>
    <clipPath id="d">
      <path class="ah" d="M13.07,6.83c-.94.28-1.71.94-1.91,1.83-.45,1.93.86,2.95,2.37,3.06.79.05,1.63,0,2.46,0s1.74,0,2.6.03c5.08.19,11.65.44,14.32,3.04-.13-1.24-.36-2.59-.99-3.59-.39-.71-1.31-1.62-2.11-2.08-3.77-2.18-8.22-2.7-11.58-2.7-3.02,0-5.16.42-5.16.42"/>
    </clipPath>
    <radialGradient id="e" cx="-2.54" cy="828.29" fx="-2.54" fy="828.29" r=".99" gradientTransform="translate(57.43 14378.66) scale(17.34 -17.34)" gradientUnits="userSpaceOnUse">
      <stop offset="0" stop-color="#accf59"/>
      <stop offset=".59" stop-color="#70b944"/>
      <stop offset="1" stop-color="#70b944"/>
    </radialGradient>
    <clipPath id="f">
      <path class="ah" d="M16.82.09c-.83,0-1.73.08-2.79.2-.81.09-1.79.43-2.49.64-.64.2-1.28.46-1.59,1.02-.12.22-.26.68-.2.96.09.45.81.73,1.41.73.81.01,1.64-.16,2.48-.23,5.78-.43,11.69.64,15.21,2.89.32.21,1.05.84,1.37,1.19.01-.05,0-.11,0-.18-1.7-2.54-4.09-4.58-6.89-5.85-.63-.27-1.23-.5-1.74-.67-.35-.11-.71-.22-1.08-.31-1.18-.26-2.23-.39-3.39-.4h-.29Z"/>
    </clipPath>
    <radialGradient id="g" cx="-3.1" cy="832.3" fx="-3.1" fy="832.3" r=".99" gradientTransform="translate(59.98 12445.05) scale(14.94 -14.94)" gradientUnits="userSpaceOnUse">
      <stop offset="0" stop-color="#94c641"/>
      <stop offset=".4" stop-color="#70b944"/>
      <stop offset="1" stop-color="#70b944"/>
    </radialGradient>
    <clipPath id="h">
      <path class="ah" d="M15.54,30.99c-.86,0-2.28.19-2.34.89-.07.91,1.2,1.03,2.24,1.12.4.03.8.05,1.19.05,4.5-.03,8.56-1.87,11.52-4.82-3.26,1.97-7.52,2.74-12.61,2.75"/>
    </clipPath>
    <radialGradient id="i" cx="-3.97" cy="838.47" fx="-3.97" fy="838.47" r=".99" gradientTransform="translate(62.62 10366.02) scale(12.33 -12.33)" gradientUnits="userSpaceOnUse">
      <stop offset="0" stop-color="#cdde78"/>
      <stop offset="1" stop-color="#95c544"/>
    </radialGradient>
    <clipPath id="j">
      <path class="ah" d="M14.99,16.97c-.51.74-.44,2.36-.09,3.11.53,1.16,1.72,1.81,3.66,2.01,6.56.64,11.63-1.41,11.74-1.46.93-.37,2.16-1.2,2.5-1.82.29-.55.39-1.17.03-1.65-.67-.89-2.39-1.31-2.39-1.31-3.04-.8-5.8-1.15-8.14-1.15-3.71,0-6.34.88-7.3,2.27"/>
    </clipPath>
    <radialGradient id="k" cx="-2.63" cy="828.96" fx="-2.63" fy="828.96" r=".99" gradientTransform="translate(57.93 14027.36) scale(16.89 -16.89)" gradientUnits="userSpaceOnUse">
      <stop offset="0" stop-color="#c9dc74"/>
      <stop offset=".96" stop-color="#70b944"/>
      <stop offset="1" stop-color="#70b944"/>
    </radialGradient>
    <clipPath id="l">
      <path class="ah" d="M11.95,10.74c-5.28,0-9.09,1.54-9.19,1.58-.93.37-2.16,1.2-2.5,1.82-.29.54-.39,1.17-.03,1.64.68.89,2.39,1.31,2.39,1.31,7.87,2.07,13.88,1.14,15.44-1.12.51-.74.43-2.36.09-3.1-.54-1.16-1.72-1.81-3.66-2.01-.87-.08-1.71-.12-2.51-.12h-.04Z"/>
    </clipPath>
    <radialGradient id="m" cx="-1.03" cy="817.62" fx="-1.03" fy="817.62" r=".99" gradientTransform="translate(58.9 24710.95) scale(30.21 -30.21)" gradientUnits="userSpaceOnUse">
      <stop offset="0" stop-color="#78c8f0"/>
      <stop offset="1" stop-color="#234090"/>
    </radialGradient>
    <clipPath id="n">
      <path class="ah" d="M6.52,5.34c-2.09.83-3.77,2.56-3.77,2.56-.57.6-1.58,2.16-2.14,4.2.26.03.72-.84,2.11-1.61.56-.31,1.34-.6,2.03-.83,5.11-1.72,12.84-1.64,18.83-.96,1.19.13,3.89.72,4.99.81.84.07,1.57-.16,1.8-.79.12-.35.03-.9-.12-1.35-.3-.45-.62-.88-.95-1.29-1.72-1.36-5.22-1.87-7.66-2.15-1.57-.18-3.18-.28-4.77-.28-3.75,0-7.42.53-10.34,1.69"/>
    </clipPath>
    <radialGradient id="o" cx="-6.64" cy="857.25" fx="-6.64" fy="857.25" r=".99" gradientTransform="translate(75.14 6894.49) scale(8.04 -8.04)" gradientUnits="userSpaceOnUse">
      <stop offset="0" stop-color="#7fcbf1"/>
      <stop offset="1" stop-color="#5897d1"/>
    </radialGradient>
    <clipPath id="p">
      <path class="ah" d="M5.41,4.32c-.57.54-.75.88-.32.6,3.28-2.05,7.6-2.84,12.77-2.85.86,0,2.29-.19,2.34-.9.07-.91-1.2-1.03-2.24-1.12C17.51.02,17.07,0,16.62,0,11.14,0,6.98,2.86,5.41,4.32"/>
    </clipPath>
    <radialGradient id="q" cx="-26.12" cy="994.89" fx="-26.12" fy="994.89" r=".99" gradientTransform="translate(81.51 2258.75) scale(2.26 -2.26)" gradientUnits="userSpaceOnUse">
      <stop offset="0" stop-color="#7fcbf1"/>
      <stop offset="1" stop-color="#2a56a4"/>
    </radialGradient>
    <clipPath id="r">
      <path class="ah" d="M.47,18.78c-.14.1-.21.27-.21.52,0,.87.63,2.96,2.46,4.37.15.12.32.23.48.33,9,5.96,20.82,2.91,20.82,2.91h0c1.14-.35,2.07-1.14,2.32-2.21.54-2.32-1.04-3.56-2.87-3.68-.96-.07-1.97,0-2.97,0s-2.1,0-3.15-.04c-6.18-.23-12.12-.48-16.87-2.2h0Z"/>
    </clipPath>
    <radialGradient id="s" cx="-4.37" cy="841.19" fx="-4.37" fy="841.19" r=".99" gradientTransform="translate(72.22 9638.9) scale(11.44 -11.44)" gradientUnits="userSpaceOnUse">
      <stop offset="0" stop-color="#4c8ac9"/>
      <stop offset="1" stop-color="#273b87"/>
    </radialGradient>
    <clipPath id="t">
      <path class="ah" d="M3.19,25.65l-.03-.02c.21.69.72,1.41,1.27,2.04h0c.88,1.02,1.87,1.8,1.87,1.8h.04c2.09,1.71,5.28,2.82,6.55,3.1,2.12.46,3.8.52,6.49.2.81-.1,1.8-.43,2.49-.64.64-.19,1.28-.46,1.59-1.02.13-.22.26-.68.2-.96-.09-.45-.77-.69-1.36-.55-.79.18-2.67.62-3.51.69-5.78.42-10.33-.6-13.67-3.06-.31-.23-1.61-1.32-1.93-1.67-.01.03-.01.06,0,.1"/>
    </clipPath>
    <radialGradient id="u" cx="-5.59" cy="849.85" fx="-5.59" fy="849.85" r=".99" gradientTransform="translate(74.12 7939.38) scale(9.32 -9.32)" gradientUnits="userSpaceOnUse">
      <stop offset="0" stop-color="#3569b2"/>
      <stop offset="1" stop-color="#273b87"/>
    </radialGradient>
    <clipPath id="v">
      <path class="ah" d="M11.96,10.74h-.07c-.13,0-.26,0-.39,0,.45.6,1.21.92,2.03.98.79.05,1.63,0,2.46,0,.4,0,.8,0,1.21,0-.64-.46-1.54-.74-2.7-.86-.86-.08-1.7-.12-2.5-.12h-.04Z"/>
    </clipPath>
    <radialGradient id="w" cx="-26.62" cy="998.77" fx="-26.62" fy="998.77" r=".99" gradientTransform="translate(73.55 2228.92) scale(2.22 -2.22)" gradientUnits="userSpaceOnUse">
      <stop offset="0" stop-color="#067f40"/>
      <stop offset="1" stop-color="#027840"/>
    </radialGradient>
    <clipPath id="x">
      <path class="ah" d="M13.07,6.83c-.86.26-1.57.83-1.85,1.61,4.08-.35,8.56-.17,12.35.27,1.19.13,3.89.72,4.99.81.57.05,1.08-.04,1.42-.29-.06-.04-.12-.08-.17-.11-3.77-2.18-8.22-2.7-11.58-2.7-3.02,0-5.16.42-5.16.42"/>
    </clipPath>
    <radialGradient id="y" cx="-6.39" cy="855.52" fx="-6.39" fy="855.52" r=".99" gradientTransform="translate(72.35 7109.06) scale(8.3 -8.3)" gradientUnits="userSpaceOnUse">
      <stop offset="0" stop-color="#1d9446"/>
      <stop offset="1" stop-color="#047c3f"/>
    </radialGradient>
    <clipPath id="z">
      <path class="ah" d="M28.85,6.31c.32.21,1.05.84,1.37,1.19.01-.05,0-.11,0-.18-.02-.04-.05-.07-.07-.11-.06-.09-.13-.18-.19-.28-.04-.05-.08-.1-.11-.16-.08-.11-.16-.22-.25-.33-.03-.04-.06-.08-.1-.13-.07-.08-.14-.17-.2-.25-1.29-1.01-3.56-1.55-5.64-1.88,2.01.5,3.8,1.21,5.21,2.11"/>
    </clipPath>
    <radialGradient id="aa" cx="-9.61" cy="878.19" fx="-9.61" fy="878.19" r=".99" gradientTransform="translate(79.41 5088.84) scale(5.79 -5.79)" gradientUnits="userSpaceOnUse">
      <stop offset="0" stop-color="#1d9446"/>
      <stop offset="1" stop-color="#088542"/>
    </radialGradient>
    <clipPath id="ab">
      <path class="ah" d="M16.96.09h-.04c-.86,0-1.79.07-2.89.2-.81.09-1.79.43-2.49.64-.64.2-1.28.46-1.59,1.02-.12.22-.26.68-.2.96,0,.02.01.04.02.07,2.39-.62,5.1-.9,8.1-.9.86,0,2.29-.19,2.34-.9.04-.47-.29-.73-.75-.88-.82-.13-1.61-.2-2.46-.2h-.04Z"/>
    </clipPath>
    <radialGradient id="ac" cx="-54.53" cy="1195.66" fx="-54.53" fy="1195.66" r=".99" gradientTransform="translate(80.81 1323.52) scale(1.11 -1.11)" gradientUnits="userSpaceOnUse">
      <stop offset="0" stop-color="#1d9446"/>
      <stop offset="1" stop-color="#057b3f"/>
    </radialGradient>
    <clipPath id="ad">
      <path class="ah" d="M14.99,16.97c-.16.22-.25.52-.31.85,1.64-.39,2.81-1.04,3.38-1.86.15-.22.25-.52.31-.85-1.64.39-2.81,1.04-3.38,1.86"/>
    </clipPath>
    <radialGradient id="ae" cx="-40.37" cy="1095.97" fx="-40.37" fy="1095.97" r=".99" gradientTransform="translate(76.38 1641.36) scale(1.48 -1.48)" gradientUnits="userSpaceOnUse">
      <stop offset="0" stop-color="#057a41"/>
      <stop offset="1" stop-color="#057a41"/>
    </radialGradient>
    <clipPath id="af">
      <path class="ah" d="M18.56,22.09c2.67.26,5.09.07,7.04-.24-.55-.49-1.31-.77-2.13-.82-.96-.07-1.97,0-2.97,0s-2.1,0-3.15-.04c-.62-.02-1.24-.05-1.86-.07.65.64,1.66,1.03,3.07,1.17"/>
    </clipPath>
    <radialGradient id="ag" cx="-21.84" cy="964.78" fx="-21.84" fy="964.78" r=".99" gradientTransform="translate(79.24 2614.16) scale(2.69 -2.69)" gradientUnits="userSpaceOnUse">
      <stop offset="0" stop-color="#02673c"/>
      <stop offset="1" stop-color="#006d47"/>
    </radialGradient>
  </defs>
  <g class="bm">
    <rect class="aq" x="2.88" y="20.96" width="29.57" height="8.79"/>
  </g>
  <g class="bh">
    <rect class="am" x="10.71" y="6.42" width="22.2" height="8.37"/>
  </g>
  <g class="bi">
    <rect class="al" x="9.69" y=".09" width="20.54" height="7.41"/>
  </g>
  <g class="be">
    <rect class="aj" x="13.13" y="28.23" width="15.02" height="4.82"/>
  </g>
  <g class="bf">
    <rect class="ai" x="14.48" y="14.71" width="18.7" height="8.02"/>
  </g>
  <g class="bj">
    <rect class="ak" x="-.13" y="10.74" width="18.7" height="8.42"/>
  </g>
  <g class="bk">
    <rect class="ao" x=".61" y="3.65" width="29.88" height="8.48"/>
  </g>
  <g class="bl">
    <rect class="an" x="4.66" y="0" width="15.62" height="5.2"/>
  </g>
  <g class="bg">
    <rect class="ap" x=".27" y="18.78" width="26.62" height="11.17"/>
  </g>
  <g class="bc">
    <rect class="ar" x="3.16" y="25.55" width="20.56" height="7.53"/>
  </g>
  <g class="bd">
    <rect class="as" x="11.5" y="10.74" width="5.7" height="1.03"/>
  </g>
  <g class="ba">
    <rect class="at" x="11.22" y="6.42" width="18.77" height="3.15"/>
  </g>
  <g class="bb">
    <rect class="au" x="23.64" y="4.2" width="6.59" height="3.31"/>
  </g>
  <g class="bp">
    <rect class="aw" x="9.69" y=".09" width="10.56" height="2.88"/>
  </g>
  <path class="ay" d="M9.76,24.35c-1.18-.14-3.84-.72-4.93-.81-.68-.06-1.28.08-1.6.48,9,5.94,20.8,2.9,20.8,2.9h0c1.14-.36,2.07-1.15,2.32-2.21.06-.27.1-.53.11-.77-4.94,1.15-11.48,1.02-16.68.41"/>
  <path class="ay" d="M13.2,31.88c-.04.48.29.74.76.89,1.67.27,3.2.27,5.43,0,.81-.1,1.8-.43,2.49-.64.64-.19,1.28-.46,1.59-1.02.12-.22.26-.68.2-.96,0-.02-.01-.04-.02-.06-2.39.62-5.11.89-8.1.9-.86,0-2.29.19-2.34.89"/>
  <g class="bo">
    <rect class="av" x="14.69" y="15.11" width="3.69" height="2.72"/>
  </g>
  <g class="bn">
    <rect class="ax" x="15.49" y="20.92" width="10.11" height="1.43"/>
  </g>
  <path class="ay" d="M5.13,27.22c-.31-.23-1.61-1.32-1.93-1.67-.01.02-.01.06,0,.1l-.03-.03c.06.18.14.37.23.56h0c.56.92,1.79,1.55,3.24,2-.53-.29-1.03-.61-1.5-.96"/>
  <path class="az" d="M46.17,15.45h-.02c-.33-.15-.68-.3-1.01-.45-.53-.25-1.54-.73-1.15-1.47.23-.45.93-.5,1.45-.5.78,0,1.54.08,2.31.23l.25-1.87-.35-.08c-.93-.23-1.89-.32-2.84-.27-.83.07-1.59.25-2.21.65-.76.5-1.2,1.34-1.28,2.21v.5c.07.69.35,1.34.88,1.82.48.45,1.13.79,1.78,1.1.51.25,1.01.45,1.49.77.38.23.65.5.65.77,0,.69-.68.94-1.31,1.02-1.08.15-2.16-.13-3.17-.44l-.15,2.04c1.26.47,2.84.68,4.17.43.68-.12,1.28-.35,1.78-.7,1.38-.97,1.84-3.26.63-4.56-.43-.45-1.06-.8-1.89-1.2M54.74,11.18h-1.48l-3.92,10.68h2.61l1.05-3.04h1.74v-1.99h-1.06l1.06-3.08h0v-2.57ZM76.56,17.14h0v.9h1.74v1.87c-1,.05-1.99-.1-2.63-.52-1.63-1.07-1.46-4.96.22-5.9,1.11-.62,3.09-.52,4.27-.39l.18-1.67c-1.96-.53-4.37-.64-6.16.53-.95.64-1.68,1.59-2.03,2.86-.3,1.17-.3,2.51.02,3.66.93,3.41,4.48,3.81,7.94,3.26.2-.03.42-.07.63-.12v-5.52h-3.21c-.73,0-1,.03-.98,1.02M82.31,21.85h2.47v-4.21h4.1v-2.01h-4.15v-2.49h4.15v-1.97h-6.58v10.68ZM68.09,17.38h0l-3.51-5.22c-.6-.98-.85-.98-1.74-.98h-1.26v10.68h2.46v-6.05l3.97,6.05h2.54v-10.68h-2.46v6.2ZM95.08,11.06v1.95h-.06c-.81.02-1.38.55-1.73,1.24-.35.7-.48,1.55-.48,2.22s.13,1.54.48,2.25c.35.72.91,1.26,1.78,1.27h0v1.97h0c-1.23,0-2.41-.43-3.31-1.27-1.88-1.72-2.17-5.16-.86-7.33.9-1.47,2.48-2.32,4.17-2.31h0ZM55.04,11.18c.81,0,1.24.15,1.64,1.14l3.54,9.54h-2.67l-1.05-3.04h-1.76v-1.99h1.06l-1.05-3.13-.02.05v-2.57h.3ZM107.32,17.31h0c2.19-.74,3.09-3.98,1.16-5.36-.81-.62-2.01-.85-3.72-.85-1.41,0-2.51.08-3.35.23v10.53h2.46v-8.69c.18-.05.55-.08,1.18-.08,2.97,0,1.96,2.99-.53,3.07-.68.02-.73-.15.48,2.06.68,1.22,1.36,2.42,2.06,3.64h2.94l-2.68-4.54ZM95.08,21.97h0c1.69,0,3.27-.85,4.15-2.32.56-.95.8-2.06.8-3.16,0-1.87-.66-3.26-1.66-4.18-.9-.82-2.09-1.25-3.29-1.25h0v1.95h0c.85,0,1.41.54,1.78,1.24.35.7.48,1.55.48,2.22s-.13,1.54-.48,2.25c-.35.72-.91,1.26-1.78,1.27h0v1.97Z"/>
</svg>